<svg width="414" height="414" viewBox="0 0 414 414" fill="none" xmlns="http://www.w3.org/2000/svg">
<rect width="414" height="414" rx="16" fill="#B2B2BE"/>
<rect x="168.609" y="149.352" width="19.0158" height="23.8298" fill="#D0CDE1" stroke="#3F3D56" stroke-width="0.24"/>
<path d="M392.495 267.775C385.542 284.549 20.5313 283.141 21.0844 267.774C28.0371 251.002 393.048 252.41 392.495 267.775Z" fill="#3F3D56"/>
<path d="M330.225 199.934H291.17V221.973H330.225V199.934Z" fill="#3F3D56"/>
<path d="M326.634 219.38H134.056V244.013H326.634V219.38Z" fill="#3F3D56"/>
<path d="M294.986 231.696H248.75V147.752H283.315L294.986 190.089V231.696Z" fill="#D0CDE1"/>
<path d="M275.684 152.937H255.932V181.459H275.684V152.937Z" fill="white"/>
<path d="M290.497 181.783H277.928V153.261H283.315L290.497 181.783Z" fill="white"/>
<path d="M261.319 197.664H256.83V209.981H261.319V197.664Z" fill="#3F3D56"/>
<path d="M281.744 171.411H281.968C283.099 171.411 284.184 172.06 284.984 173.215C285.783 174.37 286.233 175.936 286.233 177.569V177.569C286.233 179.203 285.783 180.769 284.984 181.924C284.184 183.079 283.099 183.728 281.968 183.728H281.744V171.411Z" fill="#3F3D56"/>
<path d="M114.752 219.38H114.977C116.108 219.38 117.192 220.029 117.992 221.184C118.792 222.339 119.241 223.905 119.241 225.538V225.538C119.241 227.172 118.792 228.738 117.992 229.893C117.192 231.048 116.108 231.696 114.977 231.696H114.752V219.38Z" fill="#3F3D56"/>
<path d="M312.942 219.286C319.783 219.286 325.936 224.072 330.206 231.696H338.979L330.45 197.388L290.722 186.073L291.844 231.696H295.679C299.949 224.072 306.102 219.286 312.942 219.286Z" fill="#D0CDE1"/>
<path d="M313.391 267.997C324.176 267.997 332.918 255.373 332.918 239.799C332.918 224.226 324.176 211.602 313.391 211.602C302.607 211.602 293.864 224.226 293.864 239.799C293.864 255.373 302.607 267.997 313.391 267.997Z" fill="#3F3D56"/>
<path d="M313.391 254.64C319.068 254.64 323.669 247.996 323.669 239.799C323.669 231.603 319.068 224.958 313.391 224.958C307.715 224.958 303.114 231.603 303.114 239.799C303.114 247.996 307.715 254.64 313.391 254.64Z" fill="#D0CDE1"/>
<path d="M136.973 267.673C146.394 267.673 154.031 256.644 154.031 243.04C154.031 229.436 146.394 218.408 136.973 218.408C127.552 218.408 119.915 229.436 119.915 243.04C119.915 256.644 127.552 267.673 136.973 267.673Z" fill="#3F3D56"/>
<path d="M136.974 256.005C141.932 256.005 145.952 250.2 145.952 243.04C145.952 235.88 141.932 230.076 136.974 230.076C132.015 230.076 127.996 235.88 127.996 243.04C127.996 250.2 132.015 256.005 136.974 256.005Z" fill="#D0CDE1"/>
<path d="M250.096 136.083H240.669V234.289H250.096V136.083Z" fill="#3F3D56"/>
<path d="M250.096 216.463H114.529V222.297H250.096V216.463Z" fill="#3F3D56"/>
<path d="M284.437 183.079H279.948V185.672H284.437V183.079Z" fill="#3F3D56"/>
<path d="M245.005 202.638H201.193C201.113 202.638 201.035 202.581 200.974 202.478C200.913 202.375 200.874 202.232 200.862 202.076C200.851 201.921 200.868 201.762 200.911 201.629C200.955 201.496 201.021 201.399 201.098 201.354L243.906 176.437C243.954 176.41 244.004 176.403 244.054 176.418C244.103 176.434 244.15 176.47 244.191 176.525C244.232 176.581 244.266 176.653 244.291 176.738C244.316 176.823 244.331 176.917 244.335 177.014L245.338 201.931C245.342 202.021 245.336 202.112 245.321 202.197C245.306 202.282 245.282 202.361 245.25 202.427C245.219 202.494 245.181 202.547 245.139 202.583C245.096 202.619 245.051 202.638 245.005 202.638V202.638ZM203.495 201.327H244.643L243.701 177.925L203.495 201.327Z" fill="#3F3D56"/>
<path d="M333.383 209.409L333.173 209.524C332.116 210.101 330.942 210.049 329.911 209.377C328.88 208.705 328.076 207.47 327.676 205.942V205.942C327.276 204.415 327.312 202.72 327.778 201.231C328.243 199.742 329.098 198.582 330.156 198.004L330.366 197.889L333.383 209.409Z" fill="#3F3D56"/>
<rect x="169.472" y="171.178" width="31.267" height="45.257" fill="#D0CDE1" stroke="#3F3D56" stroke-width="0.24"/>
<rect x="128.327" y="136.386" width="42.7578" height="80.0489" fill="#D0CDE1" stroke="#3F3D56" stroke-width="0.24"/>
</svg>
