<svg width="503" height="267" viewBox="0 0 503 267" fill="none" xmlns="http://www.w3.org/2000/svg">
<g opacity="0.6">
<path d="M502.92 250.754C493.505 273.354 -0.74808 271.457 0.000850264 250.753C9.41532 228.155 503.669 230.052 502.92 250.754Z" fill="#3F3D56"/>
</g>
<g opacity="0.6">
<path d="M224.979 150.105H157.183L156.464 129.26C156.433 128.357 156.598 127.457 156.948 126.623C157.298 125.79 157.824 125.042 158.491 124.431C159.158 123.82 159.949 123.361 160.81 123.085C161.671 122.809 162.582 122.724 163.479 122.833L202.932 127.664H202.937C208.786 127.68 214.39 130.014 218.521 134.154C222.653 138.294 224.975 143.903 224.979 149.752V150.105Z" fill="#6C63FF"/>
<path d="M194.762 76.165H147.478C146.849 76.1648 146.226 76.2885 145.645 76.5291C145.064 76.7697 144.536 77.1224 144.092 77.5671C143.647 78.0117 143.294 78.5396 143.054 79.1207C142.813 79.7017 142.689 80.3244 142.689 80.9533V128.238C142.689 128.867 142.813 129.489 143.054 130.07C143.294 130.651 143.647 131.179 144.092 131.624C144.536 132.069 145.064 132.421 145.645 132.662C146.226 132.903 146.849 133.026 147.478 133.026H194.762C195.391 133.026 196.014 132.903 196.595 132.662C197.176 132.421 197.704 132.069 198.149 131.624C198.593 131.179 198.946 130.651 199.186 130.07C199.427 129.489 199.551 128.867 199.551 128.238V80.9533C199.551 80.3244 199.427 79.7017 199.186 79.1207C198.946 78.5396 198.593 78.0117 198.149 77.567C197.704 77.1224 197.176 76.7697 196.595 76.5291C196.014 76.2885 195.391 76.1648 194.762 76.165Z" fill="#FFF7D5"/>
<path d="M184.113 111.523L161.788 115.87C160.464 116.126 159.092 115.847 157.973 115.093C156.855 114.339 156.081 113.172 155.822 111.849L154.106 103.036C153.849 101.712 154.129 100.34 154.883 99.2216C155.636 98.1031 156.803 97.3293 158.127 97.07L180.452 92.7225C181.776 92.4661 183.148 92.7456 184.267 93.4994C185.385 94.2533 186.159 95.4201 186.418 96.7438L188.134 105.556C188.391 106.881 188.111 108.252 187.357 109.371C186.604 110.489 185.437 111.263 184.113 111.523Z" fill="#3F3D56"/>
<path d="M179.646 101.111L162.609 104.429C162.297 104.49 161.974 104.424 161.711 104.247C161.448 104.069 161.266 103.795 161.205 103.483C161.144 103.171 161.21 102.848 161.387 102.585C161.565 102.322 161.84 102.14 162.151 102.079L179.189 98.7614C179.5 98.7007 179.823 98.7663 180.087 98.9437C180.35 99.1212 180.532 99.3959 180.593 99.7076C180.653 100.019 180.588 100.342 180.41 100.605C180.233 100.869 179.958 101.051 179.646 101.111Z" fill="white"/>
<path d="M176.335 106.025L167.522 107.741C167.211 107.802 166.888 107.736 166.624 107.559C166.361 107.381 166.179 107.106 166.119 106.795C166.058 106.483 166.123 106.16 166.301 105.897C166.478 105.634 166.753 105.452 167.065 105.391L175.877 103.675C176.032 103.645 176.19 103.645 176.344 103.677C176.498 103.708 176.645 103.769 176.775 103.857C176.905 103.945 177.017 104.058 177.104 104.189C177.191 104.32 177.251 104.467 177.281 104.621C177.311 104.775 177.31 104.934 177.279 105.088C177.248 105.242 177.187 105.388 177.099 105.519C177.011 105.649 176.898 105.761 176.767 105.848C176.636 105.935 176.489 105.995 176.335 106.025Z" fill="white"/>
<path d="M199.551 80.9533V87.2379H142.689V80.9533C142.689 80.3244 142.813 79.7017 143.054 79.1207C143.294 78.5396 143.647 78.0117 144.092 77.5671C144.536 77.1224 145.064 76.7697 145.645 76.5291C146.226 76.2885 146.849 76.1648 147.478 76.165H194.762C195.391 76.1648 196.014 76.2885 196.595 76.5291C197.176 76.7697 197.704 77.1224 198.148 77.5671C198.593 78.0117 198.946 78.5396 199.186 79.1207C199.427 79.7017 199.551 80.3244 199.551 80.9533Z" fill="#07529B"/>
<path d="M313.097 89.206C312.768 88.1463 312.212 87.1715 311.466 86.3503C310.72 85.529 309.804 84.8813 308.78 84.4526C307.757 84.024 306.653 83.8249 305.544 83.8694C304.436 83.9139 303.35 84.2009 302.365 84.7102L237.313 61.3705L234.447 77.6217L299.293 95.4537C300.258 97.0526 301.776 98.2419 303.56 98.7962C305.343 99.3505 307.268 99.2313 308.97 98.4612C310.671 97.691 312.031 96.3235 312.792 94.6177C313.552 92.9119 313.661 90.9864 313.097 89.206Z" fill="#FFB8B8"/>
<path opacity="0.2" d="M313.097 89.206C312.768 88.1463 312.212 87.1715 311.466 86.3503C310.72 85.529 309.804 84.8813 308.78 84.4526C307.757 84.024 306.653 83.8249 305.544 83.8694C304.436 83.9139 303.35 84.2009 302.365 84.7102L237.313 61.3705L234.447 77.6217L299.293 95.4537C300.258 97.0526 301.776 98.2419 303.56 98.7962C305.343 99.3505 307.268 99.2313 308.97 98.4612C310.671 97.691 312.031 96.3235 312.792 94.6177C313.552 92.9119 313.661 90.9864 313.097 89.206Z" fill="black"/>
<path d="M248.859 64.3318L242.716 80.3802C242.541 80.8368 242.27 81.2504 241.921 81.5928C241.572 81.9351 241.153 82.1983 240.693 82.3642C240.234 82.5302 239.743 82.5951 239.256 82.5545C238.769 82.5139 238.296 82.3688 237.87 82.129L222.94 73.7261C220.609 72.8184 218.734 71.0235 217.724 68.7349C216.714 66.4463 216.653 63.8507 217.554 61.5173C218.455 59.1838 220.245 57.3028 222.531 56.2867C224.816 55.2705 227.412 55.2022 229.748 56.0966L246.419 59.7941C246.897 59.9001 247.345 60.1077 247.735 60.4029C248.125 60.698 248.447 61.0736 248.678 61.5043C248.91 61.9349 249.046 62.4104 249.077 62.8983C249.108 63.3862 249.034 63.8751 248.859 64.3318Z" fill="#6C63FF"/>
<path d="M318.217 104.066L294.908 114.661L297.968 126.182C303.878 148.431 305.446 171.609 302.587 194.451L319.63 198.01L333.757 161.986L328.812 121.018L318.217 104.066Z" fill="#6C63FF"/>
<path d="M363.953 157.395C348.638 157.395 336.157 168.529 335.552 182.471H392.355C391.749 168.529 379.268 157.395 363.953 157.395Z" fill="#0E1844"/>
<path d="M352.031 159.798C351.234 96.8632 315.392 102.653 315.392 102.653C315.392 102.653 316.062 122.242 316.384 122.852C339.225 166.066 301.53 216.728 253.548 207.408C252.643 207.232 251.774 207.054 250.94 206.873C244.861 205.604 239.493 202.066 235.928 196.98C232.364 191.894 230.871 185.641 231.753 179.493C236.48 141.537 212.971 142.209 212.971 142.209H178.596L160.744 126.142C160.114 125.575 159.354 125.171 158.532 124.965C157.709 124.759 156.849 124.758 156.026 124.962C155.203 125.165 154.443 125.567 153.811 126.133C153.179 126.698 152.696 127.41 152.403 128.205L150.106 134.439C150.106 134.439 116.201 137.971 119.027 171.169H129.509C129.484 172.112 129.521 173.056 129.622 173.994L207.851 173.358C212.436 173.321 216.484 177.037 216.503 181.622C216.508 182.739 216.287 183.845 215.855 184.874C215.422 185.903 214.786 186.835 213.985 187.612C213.185 188.39 212.235 188.999 211.194 189.401C210.152 189.803 209.04 189.992 207.925 189.954L195.313 189.534C191.428 206.84 200.963 218.494 211.47 225.823C221.363 232.623 233.101 236.228 245.105 236.153H279.368C323.868 236.153 331.638 198.717 331.638 198.717C354.947 188.828 352.031 159.798 352.031 159.798Z" fill="#0E1844"/>
<path d="M361.834 256.637C383.778 256.637 401.566 238.849 401.566 216.905C401.566 194.962 383.778 177.173 361.834 177.173C339.891 177.173 322.102 194.962 322.102 216.905C322.102 238.849 339.891 256.637 361.834 256.637Z" fill="#0E1844"/>
<path d="M361.834 226.643C367.213 226.643 371.573 222.283 371.573 216.905C371.573 211.527 367.213 207.167 361.834 207.167C356.456 207.167 352.096 211.527 352.096 216.905C352.096 222.283 356.456 226.643 361.834 226.643Z" fill="white"/>
<path d="M161.231 256.637C186.49 256.637 206.967 236.16 206.967 210.901C206.967 185.642 186.49 165.165 161.231 165.165C135.972 165.165 115.495 185.642 115.495 210.901C115.495 236.16 135.972 256.637 161.231 256.637Z" fill="#0E1844"/>
<path d="M161.231 222.111C167.422 222.111 172.441 217.092 172.441 210.901C172.441 204.71 167.422 199.691 161.231 199.691C155.04 199.691 150.021 204.71 150.021 210.901C150.021 217.092 155.04 222.111 161.231 222.111Z" fill="white"/>
<path d="M294.974 117.792L286.587 95.0122C286.15 93.825 285.951 92.5633 286.002 91.2992C286.052 90.0351 286.351 88.7933 286.882 87.6448C287.412 86.4962 288.163 85.4634 289.093 84.6053C290.023 83.7472 291.112 83.0806 292.299 82.6435L316.343 73.7921C318.432 73.0228 320.652 72.6726 322.877 72.7613C325.101 72.85 327.286 73.376 329.307 74.3092C331.328 75.2423 333.145 76.5644 334.655 78.2C336.165 79.8355 337.338 81.7524 338.107 83.8413C338.801 85.7162 339.155 87.6996 339.154 89.6987C339.145 92.237 338.57 94.7415 337.472 97.03C336.374 99.3184 334.78 101.333 332.805 102.929C331.379 104.073 329.775 104.977 328.058 105.605L294.974 117.792Z" fill="#0E1844"/>
<path d="M338.8 89.6986C338.798 92.1852 338.239 94.6397 337.163 96.8816C336.087 99.1235 334.523 101.096 332.584 102.653C329.61 101.869 326.843 100.446 324.474 98.4836C322.105 96.5214 320.192 94.067 318.868 91.2908C317.544 88.5146 316.84 85.4833 316.806 82.4077C316.772 79.3321 317.407 76.2858 318.669 73.4808C321.092 72.9539 323.602 72.9764 326.015 73.5465C328.428 74.1166 330.683 75.2199 332.613 76.7753C334.544 78.3308 336.102 80.2989 337.173 82.5352C338.243 84.7715 338.799 87.2192 338.8 89.6986Z" fill="#6C63FF"/>
<path d="M125.031 175.76C130.492 175.76 134.92 170.384 134.92 163.752C134.92 157.12 130.492 151.744 125.031 151.744C119.569 151.744 115.142 157.12 115.142 163.752C115.142 170.384 119.569 175.76 125.031 175.76Z" fill="#6C63FF"/>
<path d="M255.749 206.258H264.408L268.529 183.798L255.747 183.798L255.749 206.258Z" fill="#FFB8B8"/>
<path d="M253.54 203.43L270.594 203.43H270.594C272.021 203.43 273.435 203.711 274.753 204.257C276.072 204.803 277.27 205.604 278.279 206.613C279.288 207.622 280.089 208.82 280.635 210.139C281.181 211.457 281.462 212.87 281.462 214.298V214.651L253.54 214.652L253.54 203.43Z" fill="#2F2E41"/>
<path d="M265.8 197.039C265.699 197.039 265.598 197.035 265.496 197.025L253.512 196.152C253.027 196.107 252.56 195.952 252.145 195.697C251.73 195.443 251.379 195.097 251.119 194.685C250.859 194.274 250.697 193.808 250.645 193.324C250.593 192.84 250.654 192.35 250.821 191.893L266.86 155.859C266.975 155.538 267.021 155.197 266.998 154.856C266.974 154.516 266.88 154.184 266.721 153.882C266.564 153.577 266.343 153.308 266.074 153.094C265.804 152.879 265.493 152.725 265.16 152.639C257.618 150.668 238.267 145.419 221.517 139.277C214.34 136.645 209.82 132.842 208.083 127.974C205.792 121.555 209.181 115.702 209.326 115.456L209.44 115.264L225.202 116.696L242.289 118.15L279.735 138.23C282.873 139.926 285.257 142.743 286.411 146.118C287.565 149.493 287.406 153.179 285.964 156.442L268.701 195.156C268.451 195.716 268.044 196.192 267.529 196.527C267.015 196.861 266.414 197.039 265.8 197.039Z" fill="#2F2E41"/>
<path d="M227.943 45.405C237.524 45.405 245.291 37.6378 245.291 28.0564C245.291 18.475 237.524 10.7077 227.943 10.7077C218.361 10.7077 210.594 18.475 210.594 28.0564C210.594 37.6378 218.361 45.405 227.943 45.405Z" fill="#FFB8B8"/>
<path d="M250.804 208.377H259.464L263.584 185.917L250.803 185.918L250.804 208.377Z" fill="#FFB8B8"/>
<path d="M248.595 205.549L265.649 205.549H265.65C267.077 205.549 268.49 205.83 269.809 206.376C271.127 206.922 272.326 207.723 273.335 208.732C274.344 209.741 275.145 210.939 275.691 212.258C276.237 213.576 276.518 214.989 276.518 216.417V216.77L248.596 216.771L248.595 205.549Z" fill="#2F2E41"/>
<path d="M260.856 199.158C260.755 199.158 260.654 199.154 260.552 199.144L248.568 198.271C248.083 198.226 247.615 198.071 247.2 197.816C246.785 197.562 246.434 197.216 246.174 196.804C245.914 196.393 245.752 195.927 245.701 195.443C245.649 194.959 245.709 194.47 245.877 194.013L261.916 157.978C262.03 157.657 262.077 157.316 262.053 156.975C262.029 156.635 261.935 156.304 261.777 156.001C261.619 155.696 261.398 155.427 261.129 155.213C260.86 154.998 260.548 154.844 260.215 154.758C252.673 152.787 233.323 147.538 216.572 141.396C209.396 138.764 204.876 134.961 203.138 130.093C200.848 123.674 204.237 117.821 204.382 117.575L204.496 117.383L220.258 118.815L237.345 120.269L274.791 140.349C277.929 142.045 280.312 144.862 281.466 148.237C282.621 151.612 282.461 155.298 281.02 158.561L263.756 197.275C263.506 197.835 263.1 198.311 262.585 198.646C262.07 198.98 261.47 199.158 260.856 199.158Z" fill="#2F2E41"/>
<path d="M233.293 55.2424L214.928 48.8853C214.928 48.8853 203.399 57.7429 208.938 79.7164C211.829 91.0556 210.987 103.025 206.536 113.847C206 115.186 205.382 116.491 204.686 117.754C204.686 117.754 225.17 142.477 244.242 124.111L236.825 88.4409C236.825 88.4409 248.48 64.7782 233.293 55.2424Z" fill="#6C63FF"/>
<path d="M230.097 45.995C227.628 42.2992 225.679 37.1744 228.397 33.658C231.081 30.1869 236.374 30.6983 240.484 29.1623C246.208 27.023 249.528 20.2981 248.492 14.2755C247.457 8.25298 242.622 3.26044 236.863 1.21766C231.103 -0.825123 224.609 -0.160762 218.969 2.19163C212.026 5.08745 206.07 10.6892 203.573 17.7852C201.075 24.8811 202.41 33.4012 207.591 38.8553C213.146 44.7027 221.863 46.2611 229.928 46.1665" fill="#2F2E41"/>
<path d="M213.959 14.4688C210.847 17.0017 206.1 15.8767 202.761 13.6538C199.421 11.4309 196.711 8.26558 193.097 6.52273C186.726 3.45015 179.024 5.49271 172.824 8.89614C166.623 12.2996 161.127 17.0015 154.578 19.6723C148.028 22.3431 139.671 22.4752 134.712 17.432C133.491 20.9679 133.392 24.7942 134.426 28.3889C135.461 31.9835 137.579 35.1715 140.492 37.5177C143.405 39.864 146.972 41.2543 150.704 41.499C154.437 41.7437 158.154 40.8308 161.348 38.8849C168.524 34.5137 172.488 25.3486 180.537 22.936C184.991 21.601 189.773 22.6762 194.275 23.8409C198.776 25.0055 203.47 26.264 208.013 25.2725C212.555 24.281 216.805 20.1987 216.227 15.5851L213.959 14.4688Z" fill="#2F2E41"/>
<path d="M312.234 88.4993C311.777 87.4883 311.104 86.5897 310.263 85.8667C309.422 85.1437 308.432 84.614 307.364 84.3149C306.295 84.0158 305.175 83.9545 304.08 84.1354C302.986 84.3164 301.944 84.7351 301.029 85.3621L233.594 70.227L232.756 86.7075L299.306 96.4025C300.461 97.8701 302.114 98.863 303.953 99.193C305.791 99.523 307.686 99.1672 309.28 98.193C310.873 97.2189 312.054 95.694 312.599 93.9074C313.143 92.1208 313.013 90.1966 312.234 88.4993Z" fill="#FFB8B8"/>
<path d="M245.418 71.741L241.302 88.4247C241.185 88.8994 240.967 89.3433 240.663 89.7261C240.358 90.109 239.975 90.4217 239.539 90.6432C239.103 90.8646 238.625 90.9895 238.136 91.0093C237.648 91.0292 237.161 90.9434 236.708 90.7581L220.856 84.2614C218.429 83.6497 216.345 82.1004 215.059 79.9533C213.773 77.8062 213.392 75.2368 213.998 72.8088C214.605 70.3808 216.15 68.2926 218.294 67.0024C220.439 65.7122 223.007 65.3253 225.436 65.9267L242.437 67.539C242.923 67.5853 243.394 67.736 243.818 67.9807C244.241 68.2255 244.606 68.5586 244.889 68.9574C245.172 69.3561 245.366 69.8112 245.457 70.2915C245.548 70.7719 245.535 71.2663 245.418 71.741V71.741Z" fill="#6C63FF"/>
<path d="M304.443 101.594C307.174 101.594 309.388 99.3798 309.388 96.6491C309.388 93.9184 307.174 91.7047 304.443 91.7047C301.713 91.7047 299.499 93.9184 299.499 96.6491C299.499 99.3798 301.713 101.594 304.443 101.594Z" fill="#6C63FF"/>
</g>
</svg>
