<svg width="218" height="244" viewBox="0 0 218 244" fill="none" xmlns="http://www.w3.org/2000/svg">
<path d="M121.824 57.9324H120.482V21.2378C120.482 15.6052 118.239 10.2033 114.248 6.22043C110.256 2.23756 104.842 7.10726e-06 99.1973 0H21.2844C18.4893 -7.0382e-06 15.7216 0.549318 13.1392 1.61661C10.5569 2.68391 8.21052 4.24827 6.23408 6.22038C4.25764 8.19248 2.68984 10.5337 1.6202 13.1104C0.550549 15.6871 6.17198e-06 18.4488 0 21.2378V222.547C-2.64513e-06 225.336 0.550525 228.098 1.62016 230.674C2.6898 233.251 4.2576 235.592 6.23404 237.565C8.21048 239.537 10.5568 241.101 13.1392 242.168C15.7215 243.236 18.4893 243.785 21.2844 243.785H99.1972C104.842 243.785 110.256 241.547 114.248 237.565C118.239 233.582 120.482 228.18 120.482 222.547V84.0522H121.824V57.9324Z" fill="#E6E6E6"/>
<path d="M100.056 5.52536H89.8859C90.3536 6.6695 90.5321 7.91086 90.4058 9.14007C90.2794 10.3693 89.852 11.5486 89.1613 12.5742C88.4705 13.5998 87.5376 14.4401 86.4447 15.0212C85.3518 15.6022 84.1325 15.9062 82.8941 15.9063H38.2588C37.0205 15.9062 35.8011 15.6022 34.7082 15.0212C33.6153 14.4401 32.6824 13.5998 31.9917 12.5742C31.3009 11.5486 30.8735 10.3693 30.7472 9.14004C30.6208 7.91083 30.7993 6.66948 31.267 5.52533H21.7681C17.5525 5.52533 13.5095 7.1963 10.5286 10.1707C7.54776 13.145 5.87311 17.1791 5.87311 21.3855V222.4C5.87311 226.606 7.54774 230.64 10.5286 233.614C13.5095 236.589 17.5524 238.26 21.768 238.26H100.056C102.143 238.26 104.21 237.849 106.139 237.052C108.067 236.255 109.82 235.087 111.296 233.614C112.772 232.142 113.942 230.393 114.741 228.469C115.54 226.545 115.951 224.482 115.951 222.4V21.3855C115.951 19.3027 115.54 17.2403 114.741 15.3161C113.942 13.3918 112.772 11.6434 111.296 10.1707C109.82 8.69792 108.067 7.52968 106.139 6.73263C104.21 5.93559 102.143 5.52535 100.056 5.52536Z" fill="white"/>
<path d="M109.491 163.405H15.6212C15.1604 163.405 14.7185 163.222 14.3927 162.897C14.0668 162.572 13.8835 162.131 13.8829 161.671V138.437C13.8835 137.977 14.0668 137.536 14.3927 137.211C14.7185 136.886 15.1604 136.703 15.6212 136.703H109.491C109.952 136.703 110.394 136.886 110.72 137.211C111.045 137.536 111.229 137.977 111.229 138.437V161.671C111.229 162.131 111.045 162.572 110.719 162.897C110.394 163.222 109.952 163.405 109.491 163.405ZM15.6212 137.396C15.3447 137.397 15.0795 137.506 14.884 137.701C14.6884 137.896 14.5785 138.161 14.5782 138.437V161.671C14.5785 161.947 14.6884 162.212 14.884 162.407C15.0795 162.602 15.3447 162.712 15.6212 162.712H109.491C109.768 162.712 110.033 162.602 110.228 162.407C110.424 162.212 110.534 161.947 110.534 161.671V138.437C110.534 138.161 110.424 137.896 110.228 137.701C110.033 137.506 109.768 137.397 109.491 137.396H15.6212Z" fill="#E6E6E6"/>
<path d="M27.7892 157.339C31.8214 157.339 35.0901 154.077 35.0901 150.054C35.0901 146.03 31.8214 142.769 27.7892 142.769C23.757 142.769 20.4883 146.03 20.4883 150.054C20.4883 154.077 23.757 157.339 27.7892 157.339Z" fill="#E6E6E6"/>
<path d="M44.651 145.197C44.3318 145.203 44.0275 145.333 43.8036 145.56C43.5797 145.787 43.4543 146.093 43.4543 146.412C43.4543 146.73 43.5797 147.036 43.8036 147.263C44.0275 147.49 44.3318 147.62 44.651 147.626H102.016C102.338 147.632 102.65 147.51 102.883 147.287C103.116 147.063 103.25 146.757 103.256 146.435C103.262 146.113 103.14 145.802 102.916 145.57C102.692 145.338 102.385 145.204 102.063 145.198L102.056 145.197C102.042 145.197 102.029 145.197 102.016 145.197H44.651Z" fill="#E6E6E6"/>
<path d="M44.651 152.482C44.3318 152.488 44.0275 152.618 43.8036 152.845C43.5797 153.072 43.4543 153.378 43.4543 153.696C43.4543 154.015 43.5797 154.321 43.8036 154.548C44.0275 154.775 44.3318 154.905 44.651 154.911H102.016C102.338 154.915 102.649 154.792 102.88 154.568C103.111 154.344 103.244 154.038 103.249 153.716C103.255 153.395 103.132 153.084 102.908 152.853C102.684 152.622 102.378 152.488 102.056 152.482C102.042 152.482 102.029 152.482 102.016 152.482H44.651Z" fill="#E6E6E6"/>
<path d="M109.491 202.259H15.6212C15.1604 202.258 14.7185 202.075 14.3927 201.75C14.0668 201.425 13.8835 200.984 13.8829 200.524V177.29C13.8835 176.83 14.0668 176.39 14.3927 176.064C14.7185 175.739 15.1604 175.556 15.6212 175.556H109.491C109.952 175.556 110.394 175.739 110.72 176.064C111.045 176.39 111.229 176.83 111.229 177.29V200.525C111.229 200.984 111.045 201.425 110.719 201.75C110.394 202.075 109.952 202.258 109.491 202.259ZM15.6212 176.25C15.3447 176.25 15.0795 176.36 14.884 176.555C14.6884 176.75 14.5785 177.014 14.5782 177.29V200.525C14.5785 200.801 14.6884 201.065 14.884 201.26C15.0795 201.455 15.3447 201.565 15.6212 201.565H109.491C109.768 201.565 110.033 201.455 110.228 201.26C110.424 201.065 110.534 200.801 110.534 200.525V177.29C110.534 177.014 110.424 176.75 110.228 176.555C110.033 176.36 109.768 176.25 109.491 176.25H15.6212Z" fill="#E6E6E6"/>
<path d="M27.7892 196.192C31.8214 196.192 35.0901 192.931 35.0901 188.907C35.0901 184.884 31.8214 181.622 27.7892 181.622C23.757 181.622 20.4883 184.884 20.4883 188.907C20.4883 192.931 23.757 196.192 27.7892 196.192Z" fill="#E6E6E6"/>
<path d="M44.651 184.051C44.3318 184.056 44.0275 184.186 43.8036 184.413C43.5797 184.641 43.4543 184.946 43.4543 185.265C43.4543 185.583 43.5797 185.889 43.8036 186.116C44.0275 186.343 44.3318 186.474 44.651 186.479H102.016C102.338 186.483 102.649 186.36 102.88 186.136C103.111 185.912 103.244 185.606 103.249 185.285C103.255 184.963 103.132 184.653 102.908 184.422C102.684 184.19 102.378 184.057 102.056 184.051C102.042 184.051 102.029 184.051 102.016 184.051H44.651Z" fill="#E6E6E6"/>
<path d="M44.651 191.336C44.3318 191.341 44.0275 191.471 43.8036 191.698C43.5797 191.925 43.4543 192.231 43.4543 192.55C43.4543 192.868 43.5797 193.174 43.8036 193.401C44.0275 193.628 44.3318 193.759 44.651 193.764H102.016C102.338 193.768 102.649 193.645 102.88 193.421C103.111 193.197 103.244 192.891 103.249 192.57C103.255 192.248 103.132 191.938 102.908 191.706C102.684 191.475 102.378 191.342 102.056 191.336C102.042 191.336 102.029 191.336 102.016 191.336H44.651Z" fill="#E6E6E6"/>
<path d="M60.5807 115.191C51.8248 115.195 43.426 111.728 37.232 105.553C31.0381 99.3773 27.5563 90.9997 27.5526 82.263V82.2355C27.5526 82.1665 27.5526 82.0938 27.5566 82.0248C27.6574 63.9768 42.4727 49.2793 60.5807 49.2793C69.3403 49.2783 77.7415 52.7495 83.9362 58.9292C90.1309 65.1089 93.6116 73.491 93.6126 82.2314C93.6136 90.9718 90.1348 99.3547 83.9415 105.536C77.7483 111.717 69.3478 115.19 60.5882 115.191H60.5807V115.191ZM60.5807 49.9724C52.0445 49.9914 43.8607 53.3708 37.8074 59.3763C31.754 65.3819 28.3203 73.5283 28.2522 82.0456C28.2485 82.1192 28.2485 82.1795 28.2485 82.2345C28.2477 88.6161 30.1435 94.8547 33.696 100.161C37.2486 105.468 42.2984 109.604 48.2069 112.047C54.1154 114.49 60.6172 115.13 66.8901 113.885C73.163 112.641 78.9252 109.569 83.4482 105.057C87.9711 100.545 91.0517 94.7961 92.3002 88.5373C93.5487 82.2784 92.9091 75.7907 90.4623 69.8945C88.0156 63.9983 83.8715 58.9585 78.5542 55.4124C73.2368 51.8663 66.9851 49.9731 60.5894 49.9724H60.5807Z" fill="#E6E6E6"/>
<path d="M105.786 155.039C113.202 155.039 119.214 149.04 119.214 141.64C119.214 134.24 113.202 128.241 105.786 128.241C98.3693 128.241 92.3573 134.24 92.3573 141.64C92.3573 149.04 98.3693 155.039 105.786 155.039Z" fill="white"/>
<path d="M101.122 147.668C101.099 147.668 101.076 147.668 101.053 147.667H93.835C92.9191 147.653 92.0457 147.28 91.403 146.629C90.7604 145.977 90.4 145.1 90.3997 144.186C90.3993 143.272 90.759 142.395 91.4011 141.743C92.0432 141.092 92.9164 140.718 93.8322 140.703H101.056C101.091 140.702 101.13 140.702 101.168 140.703C102.089 140.715 102.968 141.091 103.613 141.748C104.258 142.404 104.617 143.289 104.61 144.208C104.604 145.128 104.234 146.007 103.581 146.655C102.927 147.304 102.043 147.668 101.122 147.668Z" fill="#6C63FF"/>
<path d="M218 242.97H109.22V243.72H218V242.97Z" fill="#3F3D56"/>
<path d="M115.923 179.455C115.837 179.322 115.766 179.181 115.711 179.033L113.978 174.401C113.776 173.86 113.798 173.262 114.038 172.736C114.278 172.211 114.717 171.803 115.259 171.6L153.946 157.186C154.488 156.984 155.088 157.006 155.615 157.245C156.141 157.485 156.551 157.923 156.754 158.463L158.487 163.095C158.587 163.363 158.633 163.648 158.623 163.934C158.613 164.22 158.547 164.5 158.428 164.761C158.309 165.021 158.14 165.255 157.93 165.45C157.72 165.645 157.474 165.797 157.206 165.897L118.519 180.311C118.053 180.484 117.542 180.494 117.07 180.338C116.598 180.183 116.193 179.871 115.923 179.455Z" fill="#6C63FF"/>
<path d="M153.823 155.989L138.091 162.248C137.595 162.397 137.176 162.731 136.92 163.18C136.664 163.629 136.591 164.159 136.717 164.66L138.542 171.954C138.614 172.242 138.75 172.511 138.938 172.741C139.127 172.97 139.364 173.155 139.633 173.283C139.902 173.41 140.196 173.476 140.493 173.477C140.791 173.477 141.085 173.412 141.354 173.286L157.13 165.876C157.63 165.689 158.035 165.312 158.257 164.828C158.478 164.343 158.499 163.791 158.313 163.291L156.417 157.17C156.229 156.67 155.851 156.265 155.365 156.044C154.878 155.822 154.324 155.803 153.823 155.989Z" fill="#2F2E41"/>
<path d="M182.614 201.432C182.12 201.488 181.621 201.375 181.201 201.11C180.78 200.846 180.462 200.446 180.3 199.978L166.834 161.024C166.74 160.754 166.701 160.468 166.718 160.182C166.736 159.897 166.809 159.618 166.934 159.361C167.06 159.104 167.235 158.874 167.449 158.684C167.664 158.495 167.914 158.349 168.185 158.256L172.869 156.643C173.416 156.456 174.015 156.492 174.535 156.745C175.056 156.998 175.454 157.446 175.643 157.992L189.11 196.946C189.298 197.492 189.261 198.09 189.008 198.609C188.754 199.128 188.305 199.525 187.758 199.714L183.074 201.326C182.925 201.378 182.771 201.413 182.614 201.432Z" fill="#6C63FF"/>
<path d="M176.647 157.325L181.815 173.419C182.015 173.895 182.024 174.43 181.84 174.913C181.655 175.395 181.292 175.789 180.825 176.011L174.023 179.246C173.754 179.374 173.461 179.44 173.163 179.441C172.865 179.442 172.571 179.377 172.302 179.251C172.032 179.125 171.794 178.941 171.604 178.713C171.415 178.484 171.278 178.216 171.205 177.928L166.897 161.07C166.724 160.566 166.758 160.014 166.991 159.535C167.225 159.056 167.639 158.689 168.143 158.514L174.083 156.079C174.589 155.906 175.143 155.94 175.623 156.173C176.104 156.407 176.472 156.821 176.647 157.325Z" fill="#2F2E41"/>
<path d="M160.998 243.19H156.043C155.464 243.19 154.91 242.96 154.501 242.552C154.092 242.144 153.862 241.59 153.861 241.013V199.807C153.862 199.229 154.092 198.676 154.501 198.268C154.91 197.86 155.464 197.63 156.043 197.629H160.998C161.576 197.63 162.131 197.86 162.54 198.268C162.949 198.676 163.179 199.229 163.18 199.807V241.013C163.179 241.59 162.949 242.144 162.54 242.552C162.131 242.96 161.576 243.19 160.998 243.19Z" fill="#2F2E41"/>
<path d="M170.798 243.19H165.843C165.264 243.19 164.71 242.96 164.301 242.552C163.892 242.144 163.661 241.59 163.661 241.013V199.807C163.661 199.229 163.892 198.676 164.301 198.268C164.71 197.86 165.264 197.63 165.843 197.629H170.798C171.376 197.63 171.931 197.86 172.34 198.268C172.749 198.676 172.979 199.229 172.98 199.807V241.013C172.979 241.59 172.749 242.144 172.34 242.552C171.931 242.96 171.376 243.19 170.798 243.19Z" fill="#2F2E41"/>
<path d="M174.881 204.651H152.368C151.745 204.65 151.148 204.403 150.707 203.964C150.266 203.524 150.019 202.928 150.018 202.306V165.813C150.018 162.212 151.451 158.759 154.003 156.213C156.555 153.667 160.016 152.236 163.625 152.236C167.233 152.236 170.694 153.667 173.246 156.213C175.798 158.759 177.231 162.212 177.231 165.813V202.306C177.23 202.928 176.983 203.524 176.542 203.964C176.102 204.403 175.504 204.65 174.881 204.651Z" fill="#CCCCCC"/>
<path d="M178.27 213.578H166.856V149.211L167.068 149.269C170.282 150.15 173.119 152.058 175.142 154.701C177.166 157.345 178.264 160.577 178.27 163.903V213.578Z" fill="#2F2E41"/>
<path d="M159.465 213.578H148.051V163.903C148.057 160.577 149.156 157.345 151.179 154.701C153.202 152.058 156.039 150.15 159.253 149.269L159.465 149.211V213.578Z" fill="#2F2E41"/>
<path d="M163.454 144.688C173.377 144.688 181.421 136.661 181.421 126.76C181.421 116.859 173.377 108.833 163.454 108.833C153.532 108.833 145.488 116.859 145.488 126.76C145.488 136.661 153.532 144.688 163.454 144.688Z" fill="#6C63FF"/>
<path d="M183.767 122.633C183.767 122.633 184.774 94.8301 171.681 103.874C171.681 103.874 164.128 78.584 145.664 116.436L140.293 121.795C140.293 121.795 164.464 118.446 186.956 128.83L183.767 122.633Z" fill="#2F2E41"/>
<path d="M163.728 135.638C162.618 135.608 161.237 135.569 160.173 134.794C159.856 134.553 159.596 134.247 159.41 133.895C159.225 133.544 159.118 133.156 159.099 132.759C159.08 132.478 159.126 132.195 159.234 131.934C159.343 131.673 159.51 131.44 159.723 131.254C160.279 130.786 161.091 130.676 161.965 130.932L161.059 124.325L161.724 124.234L162.79 132.002L162.234 131.748C161.59 131.453 160.706 131.303 160.157 131.766C160.022 131.887 159.917 132.038 159.85 132.206C159.783 132.374 159.755 132.555 159.77 132.736C159.786 133.031 159.866 133.319 160.004 133.581C160.142 133.843 160.335 134.072 160.569 134.253C161.397 134.856 162.498 134.934 163.747 134.969L163.728 135.638Z" fill="#2F2E41"/>
<path d="M157.77 124.895H154.153V125.565H157.77V124.895Z" fill="#2F2E41"/>
<path d="M169.183 124.895H165.567V125.565H169.183V124.895Z" fill="#2F2E41"/>
<path d="M123.396 181.164C122.911 181.388 122.357 181.411 121.855 181.228C121.354 181.044 120.946 180.67 120.721 180.186L109.135 155.27C108.911 154.786 108.888 154.233 109.071 153.733C109.255 153.233 109.63 152.825 110.115 152.601C110.599 152.377 111.153 152.354 111.655 152.537C112.157 152.72 112.565 153.095 112.79 153.578L124.375 178.495C124.6 178.978 124.623 179.531 124.439 180.032C124.256 180.532 123.88 180.939 123.396 181.164Z" fill="#3F3D56"/>
<path d="M111.493 154.353C111.136 154.353 110.795 154.212 110.543 153.961C110.291 153.709 110.15 153.369 110.15 153.013V135.945H93.3645C93.0084 135.945 92.6668 135.804 92.415 135.553C92.1631 135.302 92.0217 134.961 92.0217 134.606C92.0217 134.25 92.1631 133.909 92.415 133.658C92.6668 133.407 93.0084 133.266 93.3645 133.266H111.493C111.849 133.266 112.19 133.407 112.442 133.658C112.694 133.909 112.835 134.25 112.835 134.606V153.013C112.835 153.369 112.694 153.709 112.442 153.961C112.19 154.212 111.849 154.353 111.493 154.353Z" fill="#6C63FF"/>
<path d="M111.81 156.247C108.919 157.585 105.695 158.038 102.546 157.549C99.3972 157.059 96.4646 155.648 94.119 153.495C91.7734 151.342 90.1204 148.544 89.3689 145.453C88.6173 142.363 88.8011 139.12 89.8969 136.133C90.9927 133.147 92.9513 130.552 95.5251 128.677C98.0989 126.801 101.172 125.73 104.357 125.597C107.541 125.465 110.693 126.277 113.414 127.932C116.136 129.587 118.304 132.01 119.646 134.895C121.439 138.764 121.622 143.185 120.153 147.188C118.684 151.191 115.683 154.449 111.81 156.247ZM99.942 130.723C97.7737 131.727 95.9524 133.349 94.7085 135.386C93.4645 137.423 92.8538 139.782 92.9534 142.165C93.0531 144.547 93.8586 146.847 95.2683 148.774C96.678 150.7 98.6284 152.165 100.873 152.986C103.117 153.806 105.555 153.943 107.878 153.381C110.201 152.818 112.305 151.581 113.923 149.826C115.541 148.071 116.601 145.876 116.97 143.519C117.338 141.163 116.997 138.75 115.991 136.587C114.639 133.688 112.191 131.443 109.182 130.343C106.173 129.244 102.85 129.381 99.942 130.723Z" fill="#3F3D56"/>
</svg>
