<svg width="236" height="197" viewBox="0 0 236 197" fill="none" xmlns="http://www.w3.org/2000/svg">
<path d="M10.9655 187.72C14.2389 193.791 21.1862 196.397 21.1862 196.397C21.1862 196.397 22.8263 189.16 19.5529 183.09C16.2795 177.019 9.33223 174.413 9.33223 174.413C9.33223 174.413 7.69214 181.65 10.9655 187.72Z" fill="#2F2E41"/>
<path d="M13.2154 185.723C19.1253 189.279 21.4013 196.341 21.4013 196.341C21.4013 196.341 14.0957 197.638 8.18586 194.083C2.27605 190.527 0 183.465 0 183.465C0 183.465 7.30564 182.168 13.2154 185.723Z" fill="#6C63FF"/>
<path d="M145.714 9.4574H108.841V9.98416H145.714V9.4574Z" fill="#F2F2F2"/>
<path d="M135.706 9.85242H135.179V14.7249H135.706V9.85242Z" fill="#F2F2F2"/>
<path d="M119.64 9.85242H119.113V14.7249H119.64V9.85242Z" fill="#F2F2F2"/>
<path d="M164.414 34.7417H127.541V35.2685H164.414V34.7417Z" fill="#F2F2F2"/>
<path d="M138.076 30.0009H137.549V34.8734H138.076V30.0009Z" fill="#F2F2F2"/>
<path d="M154.142 30.0009H153.615V34.8734H154.142V30.0009Z" fill="#F2F2F2"/>
<path d="M213.402 46.5939H176.529V47.1206H213.402V46.5939Z" fill="#F2F2F2"/>
<path d="M187.065 41.853H186.538V46.7255H187.065V41.853Z" fill="#F2F2F2"/>
<path d="M203.131 41.853H202.604V46.7255H203.131V41.853Z" fill="#F2F2F2"/>
<path d="M209.715 168.802H172.842V169.329H209.715V168.802Z" fill="#F2F2F2"/>
<path d="M183.377 164.061H182.85V168.933H183.377V164.061Z" fill="#F2F2F2"/>
<path d="M199.443 164.061H198.917V168.933H199.443V164.061Z" fill="#F2F2F2"/>
<path d="M146.768 84.257H109.895V84.7837H146.768V84.257Z" fill="#F2F2F2"/>
<path d="M120.43 79.5162H119.903V84.3887H120.43V79.5162Z" fill="#F2F2F2"/>
<path d="M136.496 79.5162H135.969V84.3887H136.496V79.5162Z" fill="#F2F2F2"/>
<path d="M158.356 147.731H121.483V148.258H158.356V147.731Z" fill="#F2F2F2"/>
<path d="M132.018 142.991H131.492V147.863H132.018V142.991Z" fill="#F2F2F2"/>
<path d="M148.084 142.991H147.558V147.863H148.084V142.991Z" fill="#F2F2F2"/>
<path d="M217.353 128.505H180.48V129.031H217.353V128.505Z" fill="#F2F2F2"/>
<path d="M191.015 123.764H190.489V128.636H191.015V123.764Z" fill="#F2F2F2"/>
<path d="M207.081 123.764H206.555V128.636H207.081V123.764Z" fill="#F2F2F2"/>
<path d="M95.359 184.941H32.9945V184.492H94.9102V162.732H38.2373L35.4842 156.996L35.8888 156.802L38.5197 162.283H95.359V184.941Z" fill="#2F2E41"/>
<path d="M41.2948 195.933C43.8966 195.933 46.0058 193.824 46.0058 191.222C46.0058 188.62 43.8966 186.511 41.2948 186.511C38.693 186.511 36.5838 188.62 36.5838 191.222C36.5838 193.824 38.693 195.933 41.2948 195.933Z" fill="#3F3D56"/>
<path d="M87.7317 195.933C90.3335 195.933 92.4427 193.824 92.4427 191.222C92.4427 188.62 90.3335 186.511 87.7317 186.511C85.1299 186.511 83.0207 188.62 83.0207 191.222C83.0207 193.824 85.1299 195.933 87.7317 195.933Z" fill="#3F3D56"/>
<path d="M142.469 94.0857C144.08 94.0857 145.385 92.78 145.385 91.1694C145.385 89.5587 144.08 88.2531 142.469 88.2531C140.858 88.2531 139.553 89.5587 139.553 91.1694C139.553 92.78 140.858 94.0857 142.469 94.0857Z" fill="#3F3D56"/>
<path d="M102.029 155.329H31.9312L16.7637 105.751H117.649L117.558 106.043L102.029 155.329ZM32.2631 154.88H101.7L117.038 106.2H17.3701L32.2631 154.88Z" fill="#2F2E41"/>
<path d="M96.5574 152.749H34.9878L21.6656 108.78H110.277L110.196 109.038L96.5574 152.749Z" fill="#F2F2F2"/>
<path d="M118.906 101.322L118.473 101.207L121.433 90.0477H138.655V90.4965H121.779L118.906 101.322Z" fill="#2F2E41"/>
<path d="M112.608 120.781H21.6651V121.23H112.608V120.781Z" fill="#2F2E41"/>
<path d="M107.4 137.311H26.7222V137.76H107.4V137.311Z" fill="#2F2E41"/>
<path d="M67.4296 105.975H66.9809V155.104H67.4296V105.975Z" fill="#2F2E41"/>
<path d="M87.5171 105.961L84.2964 155.089L84.7442 155.118L87.9649 105.991L87.5171 105.961Z" fill="#2F2E41"/>
<path d="M46.9027 105.961L46.4549 105.99L49.6569 155.119L50.1047 155.09L46.9027 105.961Z" fill="#2F2E41"/>
<path d="M235.988 196.217H0V196.744H235.988V196.217Z" fill="#2F2E41"/>
<path d="M156.819 16.2969C156.819 16.2969 160.669 27.2551 158.3 28.941C155.93 30.6269 166.296 44.3949 166.296 44.3949L178.735 41.0231L171.923 29.5029C171.923 29.5029 171.035 17.9828 171.035 16.2969C171.035 14.611 156.819 16.2969 156.819 16.2969Z" fill="#A0616A"/>
<path opacity="0.1" d="M156.819 16.2969C156.819 16.2969 160.669 27.2551 158.3 28.941C155.93 30.6269 166.296 44.3949 166.296 44.3949L178.735 41.0231L171.923 29.5029C171.923 29.5029 171.035 17.9828 171.035 16.2969C171.035 14.611 156.819 16.2969 156.819 16.2969Z" fill="black"/>
<path d="M150.356 94.4092C150.356 94.4092 149.232 108.458 150.356 115.764C151.48 123.069 153.166 143.3 153.166 143.3C153.166 143.3 153.166 181.513 159.348 182.075C165.529 182.637 170.025 183.199 170.587 180.951C171.149 178.703 167.777 177.579 169.463 176.455C171.149 175.331 171.711 171.398 169.463 166.902C167.215 162.406 169.463 116.888 169.463 116.888L180.14 145.548C180.14 145.548 181.264 169.15 182.388 172.522C183.512 175.893 181.264 182.075 185.198 182.637C189.131 183.199 193.627 179.827 195.875 178.703C198.123 177.579 192.503 177.579 193.627 177.017C194.751 176.455 198.123 174.769 196.999 174.208C195.875 173.646 194.751 146.671 194.751 146.671C194.751 146.671 191.66 89.0706 187.726 86.8228C183.793 84.5749 181.264 88.4467 181.264 88.4467L150.356 94.4092Z" fill="#2F2E41"/>
<path d="M160.471 179.827V184.323C160.471 184.323 155.414 196.544 160.471 196.544C165.529 196.544 169.463 197.81 169.463 196.124V180.951L160.471 179.827Z" fill="#2F2E41"/>
<path d="M193.627 179.819V184.315C193.627 184.315 198.685 196.536 193.627 196.536C188.569 196.536 184.636 197.802 184.636 196.116V180.943L193.627 179.819Z" fill="#2F2E41"/>
<path d="M164.686 24.4453C170.273 24.4453 174.801 19.9165 174.801 14.33C174.801 8.74349 170.273 4.21472 164.686 4.21472C159.1 4.21472 154.571 8.74349 154.571 14.33C154.571 19.9165 159.1 24.4453 164.686 24.4453Z" fill="#A0616A"/>
<path d="M161.595 33.1556C161.595 33.1556 164.405 41.585 168.901 39.8992L173.396 38.2133L181.264 92.1614C181.264 92.1614 175.082 101.153 166.091 95.5332C157.1 89.9136 161.595 33.1556 161.595 33.1556Z" fill="#6C63FF"/>
<path d="M169.463 31.4697L171.992 26.1311C171.992 26.1311 186.884 33.1556 189.131 35.4034C191.379 37.6513 191.379 41.023 191.379 41.023L187.446 55.072C187.446 55.072 188.569 85.9798 188.569 87.1038C188.569 88.2277 192.503 94.4093 189.693 92.1614C186.884 89.9136 186.322 87.6657 184.074 91.0375C181.826 94.4093 176.768 98.343 176.768 98.343L169.463 31.4697Z" fill="#3F3D56"/>
<path d="M189.131 71.9309L187.446 87.6658C187.446 87.6658 177.33 96.6571 179.578 97.2191C181.826 97.7811 182.95 95.5332 182.95 95.5332C182.95 95.5332 186.884 99.4669 189.131 97.2191C191.379 94.9713 196.999 73.6168 196.999 73.6168L189.131 71.9309Z" fill="#A0616A"/>
<path d="M164.902 0.0342053C162.659 -0.0459594 160.259 -0.085614 158.369 1.12281C157.499 1.72926 156.736 2.47617 156.111 3.33296C154.27 5.66082 152.678 8.58981 153.362 11.4781L154.157 11.1682C154.157 11.9392 153.985 12.7005 153.655 13.3971C153.767 13.0718 154.142 13.5977 154.041 13.9267L153.166 16.7977C154.605 16.2703 156.394 17.3381 156.613 18.8546C156.713 15.5199 157.059 11.6961 159.764 9.74347C161.129 8.75878 162.855 8.45818 164.516 8.19125C166.049 7.94499 167.655 7.71016 169.123 8.21465C170.591 8.71914 171.841 10.2203 171.508 11.7363C172.185 11.5031 172.942 11.9748 173.276 12.6077C173.611 13.2406 173.628 13.9871 173.638 14.7029C174.36 15.2127 175.181 14.2003 175.475 13.3672C176.165 11.4118 176.778 9.33033 176.406 7.2903C176.035 5.25027 174.372 3.30071 172.299 3.29379C172.55 3.01733 172.685 2.65381 172.673 2.28011L170.964 2.1357C171.398 2.07426 171.797 1.86388 172.093 1.54058C171.407 2.29567 166.011 0.0738728 164.902 0.0342053Z" fill="#2F2E41"/>
<path d="M164.405 29.7839C164.405 29.7839 159.83 25.301 158.184 25.5756C156.538 25.8502 154.29 29.7839 154.29 29.7839C154.29 29.7839 140.803 34.2796 141.365 38.7753C141.927 43.271 148.108 65.1874 148.108 65.1874C148.108 65.1874 153.166 91.5995 148.67 94.4093C144.175 97.2191 170.025 104.525 170.587 101.153C171.149 97.7811 172.273 64.0635 170.587 59.0058C168.901 53.9482 164.405 29.7839 164.405 29.7839Z" fill="#3F3D56"/>
<path d="M184.074 38.7751H191.022C191.022 38.7751 195.875 60.1296 196.437 62.3775C196.999 64.6253 198.123 75.3026 197.561 75.3026C196.999 75.3026 185.76 73.0547 185.76 74.7406L184.074 38.7751Z" fill="#3F3D56"/>
<path d="M183.839 91.6559H157.237C154.641 79.7142 154.424 68.1765 157.237 57.1532H183.839C179.546 67.9783 179.277 79.4369 183.839 91.6559Z" fill="#F2F2F2"/>
<path d="M146.422 76.9884L154.29 80.3602C154.29 80.3602 169.463 82.6081 169.463 76.4265C169.463 70.2449 154.29 73.6167 154.29 73.6167L149.232 71.9995L146.422 76.9884Z" fill="#A0616A"/>
<path d="M148.108 35.4034L141.365 37.0893L136.307 66.8732C136.307 66.8732 134.621 74.7406 137.431 75.3026C140.241 75.8646 148.108 80.3603 148.108 80.3603C148.108 80.3603 149.232 71.9309 151.48 71.9309L145.861 67.4352L149.232 47.7666L148.108 35.4034Z" fill="#3F3D56"/>
<path d="M52.7413 92.9485H15.8682V93.4752H52.7413V92.9485Z" fill="#F2F2F2"/>
<path d="M26.4033 88.2078H25.8766V93.0803H26.4033V88.2078Z" fill="#F2F2F2"/>
<path d="M42.4695 88.2078H41.9427V93.0803H42.4695V88.2078Z" fill="#F2F2F2"/>
<path d="M65.6468 14.9883H28.7738V15.515H65.6468V14.9883Z" fill="#F2F2F2"/>
<path d="M55.6385 15.3834H55.1117V20.2559H55.6385V15.3834Z" fill="#F2F2F2"/>
<path d="M39.5723 15.3834H39.0456V20.2559H39.5723V15.3834Z" fill="#F2F2F2"/>
<path d="M102.783 66.874H65.9102V67.4008H102.783V66.874Z" fill="#F2F2F2"/>
<path d="M92.7749 67.269H92.2481V72.1416H92.7749V67.269Z" fill="#F2F2F2"/>
<path d="M76.7088 67.269H76.182V72.1416H76.7088V67.269Z" fill="#F2F2F2"/>
<path d="M40.0991 66.6106H3.22601V67.1374H40.0991V66.6106Z" fill="#F2F2F2"/>
<path d="M30.0907 67.0057H29.5639V71.8782H30.0907V67.0057Z" fill="#F2F2F2"/>
<path d="M14.0246 67.0057H13.4978V71.8782H14.0246V67.0057Z" fill="#F2F2F2"/>
<path d="M84.3467 40.2727H47.4737V40.7995H84.3467V40.2727Z" fill="#F2F2F2"/>
<path d="M58.0088 35.5319H57.4821V40.4044H58.0088V35.5319Z" fill="#F2F2F2"/>
<path d="M74.075 35.5319H73.5482V40.4044H74.075V35.5319Z" fill="#F2F2F2"/>
</svg>
